<?xml version="1.0" encoding="UTF-8" standalone="no"?>
<!DOCTYPE svg PUBLIC "-//W3C//DTD SVG 1.1//EN"
 "http://www.w3.org/Graphics/SVG/1.1/DTD/svg11.dtd">
<!-- Generated by graphviz version 2.28.0 (20121225.0610)
 -->
<!-- Title: controllers_diagram Pages: 1 -->
<svg width="391pt" height="226pt"
 viewBox="0.00 0.00 390.63 226.40" xmlns="http://www.w3.org/2000/svg" xmlns:xlink="http://www.w3.org/1999/xlink">
<g id="graph1" class="graph" transform="scale(1 1) rotate(0) translate(4 222.4)">
<title>controllers_diagram</title>
<polygon fill="white" stroke="white" points="-4,5 -4,-222.4 387.635,-222.4 387.635,5 -4,5"/>
<!-- _diagram_info -->
<g id="node1" class="node"><title>_diagram_info</title>
<text text-anchor="start" x="8" y="-69" font-family="Times,serif" font-size="13.00">Controllers diagram</text>
<text text-anchor="start" x="8" y="-53.4" font-family="Times,serif" font-size="13.00">Date: Dec 25 2012 &#45; 01:23</text>
<text text-anchor="start" x="8" y="-37.8" font-family="Times,serif" font-size="13.00">Migration version: 20121225062049</text>
<text text-anchor="start" x="8" y="-22.2" font-family="Times,serif" font-size="13.00">Generated by RailRoady 1.1.0</text>
<text text-anchor="start" x="8" y="-6.6" font-family="Times,serif" font-size="13.00">http://railroady.prestonlee.com</text>
</g>
<!-- ApplicationController -->
<g id="node2" class="node"><title>ApplicationController</title>
<polyline fill="none" stroke="black" points="199,-119.5 370.635,-119.5 "/>
<path fill="none" stroke="black" d="M370.635,-119.5C376.635,-119.5 382.635,-125.5 382.635,-131.5"/>
<polyline fill="none" stroke="black" points="382.635,-131.5 382.635,-205.9 "/>
<path fill="none" stroke="black" d="M382.635,-205.9C382.635,-211.9 376.635,-217.9 370.635,-217.9"/>
<polyline fill="none" stroke="black" points="370.635,-217.9 199,-217.9 "/>
<path fill="none" stroke="black" d="M199,-217.9C193,-217.9 187,-211.9 187,-205.9"/>
<polyline fill="none" stroke="black" points="187,-205.9 187,-131.5 "/>
<path fill="none" stroke="black" d="M187,-131.5C187,-125.5 193,-119.5 199,-119.5"/>
<text text-anchor="middle" x="284.817" y="-199.9" font-family="Times,serif" font-size="14.00">ApplicationController</text>
<polyline fill="none" stroke="black" points="187,-193.1 382.635,-193.1 "/>
<text text-anchor="start" x="195" y="-175.1" font-family="Times,serif" font-size="14.00">_one_time_conditions_valid_8?</text>
<polyline fill="none" stroke="black" points="187,-168.3 382.635,-168.3 "/>
<polyline fill="none" stroke="black" points="187,-144.3 382.635,-144.3 "/>
<text text-anchor="start" x="195" y="-126.3" font-family="Times,serif" font-size="14.00">_layout</text>
</g>
</g>
</svg>
