<?xml version="1.0" encoding="UTF-8" standalone="no"?>
<!DOCTYPE svg PUBLIC "-//W3C//DTD SVG 1.1//EN"
 "http://www.w3.org/Graphics/SVG/1.1/DTD/svg11.dtd">
<!-- Generated by graphviz version 2.28.0 (20121225.0610)
 -->
<!-- Title: models_diagram Pages: 1 -->
<svg width="522pt" height="390pt"
 viewBox="0.00 0.00 522.00 390.00" xmlns="http://www.w3.org/2000/svg" xmlns:xlink="http://www.w3.org/1999/xlink">
<g id="graph1" class="graph" transform="scale(1 1) rotate(0) translate(4 386)">
<title>models_diagram</title>
<polygon fill="white" stroke="white" points="-4,5 -4,-386 519,-386 519,5 -4,5"/>
<!-- _diagram_info -->
<g id="node1" class="node"><title>_diagram_info</title>
<text text-anchor="start" x="7.31226" y="-365" font-family="Times,serif" font-size="13.00">Models diagram</text>
<text text-anchor="start" x="7.31226" y="-349.4" font-family="Times,serif" font-size="13.00">Date: Dec 25 2012 &#45; 01:23</text>
<text text-anchor="start" x="7.31226" y="-333.8" font-family="Times,serif" font-size="13.00">Migration version: 20121225062049</text>
<text text-anchor="start" x="7.31226" y="-318.2" font-family="Times,serif" font-size="13.00">Generated by RailRoady 1.1.0</text>
<text text-anchor="start" x="7.31226" y="-302.6" font-family="Times,serif" font-size="13.00">http://railroady.prestonlee.com</text>
</g>
<!-- Definition -->
<g id="node2" class="node"><title>Definition</title>
<ellipse fill="none" stroke="black" cx="78" cy="-166" rx="50.3032" ry="18"/>
<text text-anchor="middle" x="78" y="-160.4" font-family="Times,serif" font-size="14.00">Definition</text>
</g>
<!-- Vote -->
<g id="node8" class="node"><title>Vote</title>
<ellipse fill="none" stroke="black" cx="247" cy="-18" rx="28.3445" ry="18"/>
<text text-anchor="middle" x="247" y="-12.4" font-family="Times,serif" font-size="14.00">Vote</text>
</g>
<!-- Definition&#45;&gt;Vote -->
<g id="edge2" class="edge"><title>Definition&#45;&gt;Vote</title>
<path fill="none" stroke="#36d143" d="M102.6,-143.748C134.729,-115.991 190.64,-67.6898 222.647,-40.0391"/>
<ellipse fill="none" stroke="#36d143" cx="99.4346" cy="-146.483" rx="4.00002" ry="4.00002"/>
<polygon fill="#36d143" stroke="#36d143" points="223.053,-39.6878 233.562,-36.5557 226.837,-36.4191 230.62,-33.1504 230.62,-33.1504 230.62,-33.1504 226.837,-36.4191 227.679,-29.7452 223.053,-39.6878 223.053,-39.6878"/>
</g>
<!-- Gloss -->
<g id="node3" class="node"><title>Gloss</title>
<ellipse fill="none" stroke="black" cx="247" cy="-92" rx="33.0572" ry="18"/>
<text text-anchor="middle" x="247" y="-86.4" font-family="Times,serif" font-size="14.00">Gloss</text>
</g>
<!-- Gloss&#45;&gt;Vote -->
<g id="edge4" class="edge"><title>Gloss&#45;&gt;Vote</title>
<path fill="none" stroke="#e42cf2" d="M247,-65.7923C247,-59.5805 247,-52.8963 247,-46.5786"/>
<ellipse fill="none" stroke="#e42cf2" cx="247" cy="-69.937" rx="4" ry="4"/>
<polygon fill="#e42cf2" stroke="#e42cf2" points="247,-46.4407 251.5,-36.4406 247,-41.4407 247,-36.4407 247,-36.4407 247,-36.4407 247,-41.4407 242.5,-36.4407 247,-46.4407 247,-46.4407"/>
</g>
<!-- Language -->
<g id="node4" class="node"><title>Language</title>
<ellipse fill="none" stroke="black" cx="155" cy="-240" rx="49.1619" ry="18"/>
<text text-anchor="middle" x="155" y="-234.4" font-family="Times,serif" font-size="14.00">Language</text>
</g>
<!-- Language&#45;&gt;Definition -->
<g id="edge8" class="edge"><title>Language&#45;&gt;Definition</title>
<path fill="none" stroke="#3d5031" d="M131.955,-217.451C122.692,-208.79 111.998,-198.79 102.586,-189.99"/>
<ellipse fill="none" stroke="#3d5031" cx="134.989" cy="-220.289" rx="4.00002" ry="4.00002"/>
<polygon fill="#3d5031" stroke="#3d5031" points="102.345,-189.764 98.1145,-179.648 98.6932,-186.349 95.041,-182.934 95.041,-182.934 95.041,-182.934 98.6932,-186.349 91.9675,-186.221 102.345,-189.764 102.345,-189.764"/>
</g>
<!-- Language&#45;&gt;Gloss -->
<g id="edge6" class="edge"><title>Language&#45;&gt;Gloss</title>
<path fill="none" stroke="#df6c26" d="M179.904,-217.525C189.885,-207.996 200.912,-196.188 209,-184 222.26,-164.02 232.385,-138.663 238.836,-119.793"/>
<ellipse fill="none" stroke="#df6c26" cx="176.789" cy="-220.423" rx="4.00002" ry="4.00002"/>
<polygon fill="#df6c26" stroke="#df6c26" points="238.916,-119.553 246.314,-111.459 240.477,-114.803 242.039,-110.053 242.039,-110.053 242.039,-110.053 240.477,-114.803 237.764,-108.647 238.916,-119.553 238.916,-119.553"/>
</g>
<!-- Place -->
<g id="node5" class="node"><title>Place</title>
<ellipse fill="none" stroke="black" cx="326" cy="-166" rx="31.4242" ry="18"/>
<text text-anchor="middle" x="326" y="-160.4" font-family="Times,serif" font-size="14.00">Place</text>
</g>
<!-- Place&#45;&gt;Gloss -->
<g id="edge10" class="edge"><title>Place&#45;&gt;Gloss</title>
<path fill="none" stroke="#58a95c" d="M303.954,-144.907C293.658,-135.524 281.383,-124.336 270.869,-114.754"/>
<ellipse fill="none" stroke="#58a95c" cx="307.057" cy="-147.735" rx="4.00002" ry="4.00002"/>
<polygon fill="#58a95c" stroke="#58a95c" points="270.625,-114.532 266.265,-104.47 266.93,-111.164 263.234,-107.796 263.234,-107.796 263.234,-107.796 266.93,-111.164 260.203,-111.122 270.625,-114.532 270.625,-114.532"/>
</g>
<!-- Tag -->
<g id="node6" class="node"><title>Tag</title>
<ellipse fill="none" stroke="black" cx="173" cy="-166" rx="27" ry="18"/>
<text text-anchor="middle" x="173" y="-160.4" font-family="Times,serif" font-size="14.00">Tag</text>
</g>
<!-- Tag&#45;&gt;Gloss -->
<g id="edge12" class="edge"><title>Tag&#45;&gt;Gloss</title>
<path fill="none" stroke="#e5a490" d="M193.622,-144.935C203.133,-135.682 214.452,-124.668 224.215,-115.169"/>
<ellipse fill="none" stroke="#e5a490" cx="190.487" cy="-147.986" rx="4.00002" ry="4.00002"/>
<polygon fill="#e5a490" stroke="#e5a490" points="224.479,-114.913 234.784,-111.164 228.062,-111.426 231.646,-107.939 231.646,-107.939 231.646,-107.939 228.062,-111.426 228.508,-104.714 224.479,-114.913 224.479,-114.913"/>
</g>
<!-- User -->
<g id="node7" class="node"><title>User</title>
<ellipse fill="none" stroke="black" cx="254" cy="-339" rx="28.9087" ry="18"/>
<text text-anchor="middle" x="254" y="-333.4" font-family="Times,serif" font-size="14.00">User</text>
</g>
<!-- User&#45;&gt;Definition -->
<g id="edge16" class="edge"><title>User&#45;&gt;Definition</title>
<path fill="none" stroke="#4275f0" d="M237.17,-315.737C230.869,-308.62 223.226,-301.237 215,-296 168.524,-266.408 133.847,-298.963 97,-258 81.4466,-240.709 77.3829,-214.05 76.802,-194.049"/>
<ellipse fill="none" stroke="#4275f0" cx="239.98" cy="-319.072" rx="4.00002" ry="4.00002"/>
<polygon fill="#4275f0" stroke="#4275f0" points="76.802,-194.003 81.2798,-183.993 76.791,-189.003 76.7799,-184.003 76.7799,-184.003 76.7799,-184.003 76.791,-189.003 72.2799,-184.013 76.802,-194.003 76.802,-194.003"/>
</g>
<!-- User&#45;&gt;Vote -->
<g id="edge18" class="edge"><title>User&#45;&gt;Vote</title>
<path fill="none" stroke="#c1008c" d="M290.208,-332.284C361.673,-319.975 514,-288.202 514,-241 514,-241 514,-241 514,-91 514,-44.2109 359.219,-26.932 285.352,-21.3499"/>
<ellipse fill="none" stroke="#c1008c" cx="286.263" cy="-332.952" rx="4.00001" ry="4.00001"/>
<polygon fill="#c1008c" stroke="#c1008c" points="285.043,-21.3278 275.392,-16.1207 280.056,-20.9684 275.069,-20.6091 275.069,-20.6091 275.069,-20.6091 280.056,-20.9684 274.746,-25.0975 285.043,-21.3278 285.043,-21.3278"/>
</g>
<!-- Word -->
<g id="node9" class="node"><title>Word</title>
<ellipse fill="none" stroke="black" cx="254" cy="-240" rx="31.8859" ry="18"/>
<text text-anchor="middle" x="254" y="-234.4" font-family="Times,serif" font-size="14.00">Word</text>
</g>
<!-- User&#45;&gt;Word -->
<g id="edge14" class="edge"><title>User&#45;&gt;Word</title>
<path fill="none" stroke="#3dbf71" d="M254,-312.227C254,-298.741 254,-282.227 254,-268.496"/>
<ellipse fill="none" stroke="#3dbf71" cx="254" cy="-316.658" rx="4" ry="4"/>
<polygon fill="#3dbf71" stroke="#3dbf71" points="254,-268.192 258.5,-258.191 254,-263.192 254,-258.192 254,-258.192 254,-258.192 254,-263.192 249.5,-258.192 254,-268.192 254,-268.192"/>
</g>
<!-- Word&#45;&gt;Definition -->
<g id="edge24" class="edge"><title>Word&#45;&gt;Definition</title>
<path fill="none" stroke="#adac06" d="M221.389,-225.457C218.553,-224.286 215.726,-223.12 213,-222 181.624,-209.104 146.095,-194.634 119.363,-183.774"/>
<ellipse fill="none" stroke="#adac06" cx="225.162" cy="-227.018" rx="4.00002" ry="4.00002"/>
<polygon fill="#adac06" stroke="#adac06" points="119.201,-183.709 111.629,-175.777 114.569,-181.828 109.936,-179.946 109.936,-179.946 109.936,-179.946 114.569,-181.828 108.243,-184.116 119.201,-183.709 119.201,-183.709"/>
</g>
<!-- Word&#45;&gt;Gloss -->
<g id="edge26" class="edge"><title>Word&#45;&gt;Gloss</title>
<path fill="none" stroke="#e23809" d="M252.792,-213.8C251.547,-187.827 249.611,-147.449 248.324,-120.622"/>
<ellipse fill="none" stroke="#e23809" cx="252.992" cy="-217.971" rx="4" ry="4"/>
<polygon fill="#e23809" stroke="#e23809" points="248.312,-120.366 252.328,-110.162 248.073,-115.372 247.833,-110.378 247.833,-110.378 247.833,-110.378 248.073,-115.372 243.338,-110.593 248.312,-120.366 248.312,-120.366"/>
</g>
<!-- Word&#45;&gt;Place -->
<g id="edge28" class="edge"><title>Word&#45;&gt;Place</title>
<path fill="none" stroke="#3575cf" d="M274.998,-218.002C283.94,-209.06 294.385,-198.615 303.486,-189.514"/>
<ellipse fill="none" stroke="#3575cf" cx="272.098" cy="-220.902" rx="4.00002" ry="4.00002"/>
<polygon fill="#3575cf" stroke="#3575cf" points="303.682,-189.318 313.935,-185.429 307.217,-185.783 310.753,-182.247 310.753,-182.247 310.753,-182.247 307.217,-185.783 307.571,-179.065 303.682,-189.318 303.682,-189.318"/>
</g>
<!-- Word&#45;&gt;Word -->
<g id="edge22" class="edge"><title>Word&#45;&gt;Word</title>
<path fill="none" stroke="#ee5713" d="M289.65,-253.109C328.515,-259.531 381.759,-255.161 381.759,-240 381.759,-224.839 328.515,-220.469 289.65,-226.891"/>
<polygon fill="#ee5713" stroke="#ee5713" points="289.434,-253.066 280.495,-246.714 284.529,-252.098 279.624,-251.129 279.624,-251.129 279.624,-251.129 284.529,-252.098 278.752,-255.544 289.434,-253.066 289.434,-253.066"/>
<polygon fill="#ee5713" stroke="#ee5713" points="289.434,-226.934 278.752,-224.456 284.529,-227.902 279.624,-228.871 279.624,-228.871 279.624,-228.871 284.529,-227.902 280.495,-233.286 289.434,-226.934 289.434,-226.934"/>
<text text-anchor="middle" x="425.7" y="-234.4" font-family="Times,serif" font-size="14.00">used_by_words</text>
</g>
<!-- Word&#45;&gt;Word -->
<g id="edge20" class="edge"><title>Word&#45;&gt;Word</title>
<path fill="none" stroke="#02dcbf" d="M295.993,-242.875C300.846,-242.343 304,-241.384 304,-240 304,-238.616 300.846,-237.657 295.993,-237.125"/>
<polygon fill="#02dcbf" stroke="#02dcbf" points="295.725,-242.888 285.518,-238.879 290.731,-243.131 285.737,-243.374 285.737,-243.374 285.737,-243.374 290.731,-243.131 285.955,-247.869 295.725,-242.888 295.725,-242.888"/>
<polygon fill="#02dcbf" stroke="#02dcbf" points="295.725,-237.112 285.955,-232.131 290.731,-236.869 285.737,-236.626 285.737,-236.626 285.737,-236.626 290.731,-236.869 285.518,-241.121 295.725,-237.112 295.725,-237.112"/>
<text text-anchor="middle" x="342.879" y="-234.4" font-family="Times,serif" font-size="14.00">source_words</text>
</g>
</g>
</svg>
