<?xml version="1.0" encoding="UTF-8" standalone="no"?>
<!DOCTYPE svg PUBLIC "-//W3C//DTD SVG 1.1//EN"
 "http://www.w3.org/Graphics/SVG/1.1/DTD/svg11.dtd">
<!-- Generated by graphviz version 2.28.0 (20121225.0610)
 -->
<!-- Title: models_diagram Pages: 1 -->
<svg width="628pt" height="868pt"
 viewBox="0.00 0.00 628.00 868.00" xmlns="http://www.w3.org/2000/svg" xmlns:xlink="http://www.w3.org/1999/xlink">
<g id="graph1" class="graph" transform="scale(1 1) rotate(0) translate(4 864)">
<title>models_diagram</title>
<polygon fill="white" stroke="white" points="-4,5 -4,-864 625,-864 625,5 -4,5"/>
<!-- _diagram_info -->
<g id="node1" class="node"><title>_diagram_info</title>
<text text-anchor="start" x="41.3123" y="-827" font-family="Times,serif" font-size="13.00">Models diagram</text>
<text text-anchor="start" x="41.3123" y="-811.4" font-family="Times,serif" font-size="13.00">Date: Dec 25 2012 &#45; 01:23</text>
<text text-anchor="start" x="41.3123" y="-795.8" font-family="Times,serif" font-size="13.00">Migration version: 20121225062049</text>
<text text-anchor="start" x="41.3123" y="-780.2" font-family="Times,serif" font-size="13.00">Generated by RailRoady 1.1.0</text>
<text text-anchor="start" x="41.3123" y="-764.6" font-family="Times,serif" font-size="13.00">http://railroady.prestonlee.com</text>
</g>
<!-- Definition -->
<g id="node2" class="node"><title>Definition</title>
<polyline fill="none" stroke="black" points="11.4946,-396.8 120.505,-396.8 "/>
<path fill="none" stroke="black" d="M120.505,-396.8C126.505,-396.8 132.505,-402.8 132.505,-408.8"/>
<polyline fill="none" stroke="black" points="132.505,-408.8 132.505,-535.2 "/>
<path fill="none" stroke="black" d="M132.505,-535.2C132.505,-541.2 126.505,-547.2 120.505,-547.2"/>
<polyline fill="none" stroke="black" points="120.505,-547.2 11.4946,-547.2 "/>
<path fill="none" stroke="black" d="M11.4946,-547.2C5.49463,-547.2 -0.505371,-541.2 -0.505371,-535.2"/>
<polyline fill="none" stroke="black" points="-0.505371,-535.2 -0.505371,-408.8 "/>
<path fill="none" stroke="black" d="M-0.505371,-408.8C-0.505371,-402.8 5.49463,-396.8 11.4946,-396.8"/>
<text text-anchor="middle" x="66" y="-529.2" font-family="Times,serif" font-size="14.00">Definition</text>
<polyline fill="none" stroke="black" points="-0.505371,-522.4 132.505,-522.4 "/>
<text text-anchor="start" x="7.49463" y="-504.4" font-family="Times,serif" font-size="14.00">id :integer</text>
<text text-anchor="start" x="7.49463" y="-487.6" font-family="Times,serif" font-size="14.00">text :text</text>
<text text-anchor="start" x="7.49463" y="-470.8" font-family="Times,serif" font-size="14.00">user_id :integer</text>
<text text-anchor="start" x="7.49463" y="-454" font-family="Times,serif" font-size="14.00">word_id :integer</text>
<text text-anchor="start" x="7.49463" y="-437.2" font-family="Times,serif" font-size="14.00">language_id :integer</text>
<text text-anchor="start" x="7.49463" y="-420.4" font-family="Times,serif" font-size="14.00">created_at :datetime</text>
<text text-anchor="start" x="7.49463" y="-403.6" font-family="Times,serif" font-size="14.00">updated_at :datetime</text>
</g>
<!-- Vote -->
<g id="node8" class="node"><title>Vote</title>
<polyline fill="none" stroke="black" points="276.098,-0.8 385.902,-0.8 "/>
<path fill="none" stroke="black" d="M385.902,-0.8C391.902,-0.8 397.902,-6.8 397.902,-12.8"/>
<polyline fill="none" stroke="black" points="397.902,-12.8 397.902,-139.2 "/>
<path fill="none" stroke="black" d="M397.902,-139.2C397.902,-145.2 391.902,-151.2 385.902,-151.2"/>
<polyline fill="none" stroke="black" points="385.902,-151.2 276.098,-151.2 "/>
<path fill="none" stroke="black" d="M276.098,-151.2C270.098,-151.2 264.098,-145.2 264.098,-139.2"/>
<polyline fill="none" stroke="black" points="264.098,-139.2 264.098,-12.8 "/>
<path fill="none" stroke="black" d="M264.098,-12.8C264.098,-6.8 270.098,-0.8 276.098,-0.8"/>
<text text-anchor="middle" x="331" y="-133.2" font-family="Times,serif" font-size="14.00">Vote</text>
<polyline fill="none" stroke="black" points="264.098,-126.4 397.902,-126.4 "/>
<text text-anchor="start" x="272.098" y="-108.4" font-family="Times,serif" font-size="14.00">id :integer</text>
<text text-anchor="start" x="272.098" y="-91.6" font-family="Times,serif" font-size="14.00">vote :integer</text>
<text text-anchor="start" x="272.098" y="-74.8" font-family="Times,serif" font-size="14.00">user_id :integer</text>
<text text-anchor="start" x="272.098" y="-58" font-family="Times,serif" font-size="14.00">created_at :datetime</text>
<text text-anchor="start" x="272.098" y="-41.2" font-family="Times,serif" font-size="14.00">updated_at :datetime</text>
<text text-anchor="start" x="272.098" y="-24.4" font-family="Times,serif" font-size="14.00">voteable_id :integer</text>
<text text-anchor="start" x="272.098" y="-7.6" font-family="Times,serif" font-size="14.00">voteable_type :string</text>
</g>
<!-- Definition&#45;&gt;Vote -->
<g id="edge2" class="edge"><title>Definition&#45;&gt;Vote</title>
<path fill="none" stroke="#c3b313" d="M119.537,-389.763C156.733,-333.515 207.584,-257.005 253,-190 259.635,-180.211 266.628,-169.972 273.59,-159.826"/>
<ellipse fill="none" stroke="#c3b313" cx="117.275" cy="-393.183" rx="4.00002" ry="4.00002"/>
<polygon fill="#c3b313" stroke="#c3b313" points="273.76,-159.579 283.132,-153.885 276.592,-155.458 279.423,-151.337 279.423,-151.337 279.423,-151.337 276.592,-155.458 275.714,-148.788 273.76,-159.579 273.76,-159.579"/>
</g>
<!-- Gloss -->
<g id="node3" class="node"><title>Gloss</title>
<polyline fill="none" stroke="black" points="273.757,-190.4 388.243,-190.4 "/>
<path fill="none" stroke="black" d="M388.243,-190.4C394.243,-190.4 400.243,-196.4 400.243,-202.4"/>
<polyline fill="none" stroke="black" points="400.243,-202.4 400.243,-345.6 "/>
<path fill="none" stroke="black" d="M400.243,-345.6C400.243,-351.6 394.243,-357.6 388.243,-357.6"/>
<polyline fill="none" stroke="black" points="388.243,-357.6 273.757,-357.6 "/>
<path fill="none" stroke="black" d="M273.757,-357.6C267.757,-357.6 261.757,-351.6 261.757,-345.6"/>
<polyline fill="none" stroke="black" points="261.757,-345.6 261.757,-202.4 "/>
<path fill="none" stroke="black" d="M261.757,-202.4C261.757,-196.4 267.757,-190.4 273.757,-190.4"/>
<text text-anchor="middle" x="331" y="-339.6" font-family="Times,serif" font-size="14.00">Gloss</text>
<polyline fill="none" stroke="black" points="261.757,-332.8 400.243,-332.8 "/>
<text text-anchor="start" x="269.757" y="-314.8" font-family="Times,serif" font-size="14.00">id :integer</text>
<text text-anchor="start" x="269.757" y="-298" font-family="Times,serif" font-size="14.00">text :text</text>
<text text-anchor="start" x="269.757" y="-281.2" font-family="Times,serif" font-size="14.00">glossable_id :integer</text>
<text text-anchor="start" x="269.757" y="-264.4" font-family="Times,serif" font-size="14.00">glossable_type :string</text>
<text text-anchor="start" x="269.757" y="-247.6" font-family="Times,serif" font-size="14.00">language_id :integer</text>
<text text-anchor="start" x="269.757" y="-230.8" font-family="Times,serif" font-size="14.00">tag_id :integer</text>
<text text-anchor="start" x="269.757" y="-214" font-family="Times,serif" font-size="14.00">created_at :datetime</text>
<text text-anchor="start" x="269.757" y="-197.2" font-family="Times,serif" font-size="14.00">updated_at :datetime</text>
</g>
<!-- Gloss&#45;&gt;Vote -->
<g id="edge4" class="edge"><title>Gloss&#45;&gt;Vote</title>
<path fill="none" stroke="#0a1354" d="M331,-181.991C331,-175.28 331,-168.525 331,-161.852"/>
<ellipse fill="none" stroke="#0a1354" cx="331" cy="-186.162" rx="4" ry="4"/>
<polygon fill="#0a1354" stroke="#0a1354" points="331,-161.453 335.5,-151.453 331,-156.453 331,-151.453 331,-151.453 331,-151.453 331,-156.453 326.5,-151.454 331,-161.453 331,-161.453"/>
</g>
<!-- Language -->
<g id="node4" class="node"><title>Language</title>
<polyline fill="none" stroke="black" points="116.495,-595 225.505,-595 "/>
<path fill="none" stroke="black" d="M225.505,-595C231.505,-595 237.505,-601 237.505,-607"/>
<polyline fill="none" stroke="black" points="237.505,-607 237.505,-683 "/>
<path fill="none" stroke="black" d="M237.505,-683C237.505,-689 231.505,-695 225.505,-695"/>
<polyline fill="none" stroke="black" points="225.505,-695 116.495,-695 "/>
<path fill="none" stroke="black" d="M116.495,-695C110.495,-695 104.495,-689 104.495,-683"/>
<polyline fill="none" stroke="black" points="104.495,-683 104.495,-607 "/>
<path fill="none" stroke="black" d="M104.495,-607C104.495,-601 110.495,-595 116.495,-595"/>
<text text-anchor="middle" x="171" y="-677" font-family="Times,serif" font-size="14.00">Language</text>
<polyline fill="none" stroke="black" points="104.495,-670.2 237.505,-670.2 "/>
<text text-anchor="start" x="112.495" y="-652.2" font-family="Times,serif" font-size="14.00">id :integer</text>
<text text-anchor="start" x="112.495" y="-635.4" font-family="Times,serif" font-size="14.00">code :text</text>
<text text-anchor="start" x="112.495" y="-618.6" font-family="Times,serif" font-size="14.00">created_at :datetime</text>
<text text-anchor="start" x="112.495" y="-601.8" font-family="Times,serif" font-size="14.00">updated_at :datetime</text>
</g>
<!-- Language&#45;&gt;Definition -->
<g id="edge8" class="edge"><title>Language&#45;&gt;Definition</title>
<path fill="none" stroke="#663bb5" d="M136.575,-587.936C130.317,-577.744 123.668,-566.916 117.05,-556.139"/>
<ellipse fill="none" stroke="#663bb5" cx="138.818" cy="-591.59" rx="4.00002" ry="4.00002"/>
<polygon fill="#663bb5" stroke="#663bb5" points="116.99,-556.041 115.592,-545.165 114.374,-551.78 111.757,-547.519 111.757,-547.519 111.757,-547.519 114.374,-551.78 107.923,-549.874 116.99,-556.041 116.99,-556.041"/>
</g>
<!-- Language&#45;&gt;Gloss -->
<g id="edge6" class="edge"><title>Language&#45;&gt;Gloss</title>
<path fill="none" stroke="#2a9fc2" d="M243.593,-589.869C267.284,-571.538 288.477,-554.138 292,-548 309.227,-517.982 319.435,-434.796 325.057,-368.07"/>
<ellipse fill="none" stroke="#2a9fc2" cx="240.362" cy="-592.357" rx="4.00002" ry="4.00002"/>
<polygon fill="#2a9fc2" stroke="#2a9fc2" points="325.071,-367.901 330.372,-358.301 325.479,-362.917 325.887,-357.934 325.887,-357.934 325.887,-357.934 325.479,-362.917 321.402,-357.567 325.071,-367.901 325.071,-367.901"/>
</g>
<!-- Place -->
<g id="node5" class="node"><title>Place</title>
<polyline fill="none" stroke="black" points="390.495,-422 499.505,-422 "/>
<path fill="none" stroke="black" d="M499.505,-422C505.505,-422 511.505,-428 511.505,-434"/>
<polyline fill="none" stroke="black" points="511.505,-434 511.505,-510 "/>
<path fill="none" stroke="black" d="M511.505,-510C511.505,-516 505.505,-522 499.505,-522"/>
<polyline fill="none" stroke="black" points="499.505,-522 390.495,-522 "/>
<path fill="none" stroke="black" d="M390.495,-522C384.495,-522 378.495,-516 378.495,-510"/>
<polyline fill="none" stroke="black" points="378.495,-510 378.495,-434 "/>
<path fill="none" stroke="black" d="M378.495,-434C378.495,-428 384.495,-422 390.495,-422"/>
<text text-anchor="middle" x="445" y="-504" font-family="Times,serif" font-size="14.00">Place</text>
<polyline fill="none" stroke="black" points="378.495,-497.2 511.505,-497.2 "/>
<text text-anchor="start" x="386.495" y="-479.2" font-family="Times,serif" font-size="14.00">id :integer</text>
<text text-anchor="start" x="386.495" y="-462.4" font-family="Times,serif" font-size="14.00">word_id :integer</text>
<text text-anchor="start" x="386.495" y="-445.6" font-family="Times,serif" font-size="14.00">created_at :datetime</text>
<text text-anchor="start" x="386.495" y="-428.8" font-family="Times,serif" font-size="14.00">updated_at :datetime</text>
</g>
<!-- Place&#45;&gt;Gloss -->
<g id="edge10" class="edge"><title>Place&#45;&gt;Gloss</title>
<path fill="none" stroke="#c83c1e" d="M412.337,-414.843C403.615,-399.847 393.957,-383.243 384.433,-366.867"/>
<ellipse fill="none" stroke="#c83c1e" cx="414.369" cy="-418.336" rx="4.00002" ry="4.00002"/>
<polygon fill="#c83c1e" stroke="#c83c1e" points="384.19,-366.449 383.052,-355.542 381.676,-362.127 379.162,-357.805 379.162,-357.805 379.162,-357.805 381.676,-362.127 375.272,-360.067 384.19,-366.449 384.19,-366.449"/>
</g>
<!-- Tag -->
<g id="node6" class="node"><title>Tag</title>
<polyline fill="none" stroke="black" points="162.495,-422 271.505,-422 "/>
<path fill="none" stroke="black" d="M271.505,-422C277.505,-422 283.505,-428 283.505,-434"/>
<polyline fill="none" stroke="black" points="283.505,-434 283.505,-510 "/>
<path fill="none" stroke="black" d="M283.505,-510C283.505,-516 277.505,-522 271.505,-522"/>
<polyline fill="none" stroke="black" points="271.505,-522 162.495,-522 "/>
<path fill="none" stroke="black" d="M162.495,-522C156.495,-522 150.495,-516 150.495,-510"/>
<polyline fill="none" stroke="black" points="150.495,-510 150.495,-434 "/>
<path fill="none" stroke="black" d="M150.495,-434C150.495,-428 156.495,-422 162.495,-422"/>
<text text-anchor="middle" x="217" y="-504" font-family="Times,serif" font-size="14.00">Tag</text>
<polyline fill="none" stroke="black" points="150.495,-497.2 283.505,-497.2 "/>
<text text-anchor="start" x="158.495" y="-479.2" font-family="Times,serif" font-size="14.00">id :integer</text>
<text text-anchor="start" x="158.495" y="-462.4" font-family="Times,serif" font-size="14.00">text :text</text>
<text text-anchor="start" x="158.495" y="-445.6" font-family="Times,serif" font-size="14.00">created_at :datetime</text>
<text text-anchor="start" x="158.495" y="-428.8" font-family="Times,serif" font-size="14.00">updated_at :datetime</text>
</g>
<!-- Tag&#45;&gt;Gloss -->
<g id="edge12" class="edge"><title>Tag&#45;&gt;Gloss</title>
<path fill="none" stroke="#2525b9" d="M249.663,-414.843C258.385,-399.847 268.043,-383.243 277.567,-366.867"/>
<ellipse fill="none" stroke="#2525b9" cx="247.631" cy="-418.336" rx="4.00002" ry="4.00002"/>
<polygon fill="#2525b9" stroke="#2525b9" points="277.81,-366.449 286.728,-360.067 280.324,-362.127 282.838,-357.805 282.838,-357.805 282.838,-357.805 280.324,-362.127 278.948,-355.542 277.81,-366.449 277.81,-366.449"/>
</g>
<!-- User -->
<g id="node7" class="node"><title>User</title>
<polyline fill="none" stroke="black" points="270.495,-742.6 379.505,-742.6 "/>
<path fill="none" stroke="black" d="M379.505,-742.6C385.505,-742.6 391.505,-748.6 391.505,-754.6"/>
<polyline fill="none" stroke="black" points="391.505,-754.6 391.505,-847.4 "/>
<path fill="none" stroke="black" d="M391.505,-847.4C391.505,-853.4 385.505,-859.4 379.505,-859.4"/>
<polyline fill="none" stroke="black" points="379.505,-859.4 270.495,-859.4 "/>
<path fill="none" stroke="black" d="M270.495,-859.4C264.495,-859.4 258.495,-853.4 258.495,-847.4"/>
<polyline fill="none" stroke="black" points="258.495,-847.4 258.495,-754.6 "/>
<path fill="none" stroke="black" d="M258.495,-754.6C258.495,-748.6 264.495,-742.6 270.495,-742.6"/>
<text text-anchor="middle" x="325" y="-841.4" font-family="Times,serif" font-size="14.00">User</text>
<polyline fill="none" stroke="black" points="258.495,-834.6 391.505,-834.6 "/>
<text text-anchor="start" x="266.495" y="-816.6" font-family="Times,serif" font-size="14.00">id :integer</text>
<text text-anchor="start" x="266.495" y="-799.8" font-family="Times,serif" font-size="14.00">name :text</text>
<text text-anchor="start" x="266.495" y="-783" font-family="Times,serif" font-size="14.00">email :text</text>
<text text-anchor="start" x="266.495" y="-766.2" font-family="Times,serif" font-size="14.00">created_at :datetime</text>
<text text-anchor="start" x="266.495" y="-749.4" font-family="Times,serif" font-size="14.00">updated_at :datetime</text>
</g>
<!-- User&#45;&gt;Definition -->
<g id="edge16" class="edge"><title>User&#45;&gt;Definition</title>
<path fill="none" stroke="#e1a545" d="M251.062,-743.009C250.375,-742.666 249.688,-742.33 249,-742 185.426,-711.533 141.849,-756.679 95,-704 60.1437,-664.806 53.1738,-605.99 54.7749,-557.516"/>
<ellipse fill="none" stroke="#e1a545" cx="254.866" cy="-745.035" rx="4.00002" ry="4.00002"/>
<polygon fill="#e1a545" stroke="#e1a545" points="54.7834,-557.33 59.7351,-547.546 55.0116,-552.335 55.2398,-547.341 55.2398,-547.341 55.2398,-547.341 55.0116,-552.335 50.7445,-547.135 54.7834,-557.33 54.7834,-557.33"/>
</g>
<!-- User&#45;&gt;Vote -->
<g id="edge18" class="edge"><title>User&#45;&gt;Vote</title>
<path fill="none" stroke="#821305" d="M399.618,-793.211C487.012,-780.683 620,-745.304 620,-646 620,-646 620,-646 620,-273 620,-170.261 493.352,-117.653 407.735,-93.8274"/>
<ellipse fill="none" stroke="#821305" cx="395.534" cy="-793.773" rx="4.00001" ry="4.00001"/>
<polygon fill="#821305" stroke="#821305" points="407.681,-93.8129 399.205,-86.856 402.855,-92.5063 398.029,-91.1997 398.029,-91.1997 398.029,-91.1997 402.855,-92.5063 396.853,-95.5433 407.681,-93.8129 407.681,-93.8129"/>
</g>
<!-- Word -->
<g id="node9" class="node"><title>Word</title>
<polyline fill="none" stroke="black" points="270.495,-586.6 379.505,-586.6 "/>
<path fill="none" stroke="black" d="M379.505,-586.6C385.505,-586.6 391.505,-592.6 391.505,-598.6"/>
<polyline fill="none" stroke="black" points="391.505,-598.6 391.505,-691.4 "/>
<path fill="none" stroke="black" d="M391.505,-691.4C391.505,-697.4 385.505,-703.4 379.505,-703.4"/>
<polyline fill="none" stroke="black" points="379.505,-703.4 270.495,-703.4 "/>
<path fill="none" stroke="black" d="M270.495,-703.4C264.495,-703.4 258.495,-697.4 258.495,-691.4"/>
<polyline fill="none" stroke="black" points="258.495,-691.4 258.495,-598.6 "/>
<path fill="none" stroke="black" d="M258.495,-598.6C258.495,-592.6 264.495,-586.6 270.495,-586.6"/>
<text text-anchor="middle" x="325" y="-685.4" font-family="Times,serif" font-size="14.00">Word</text>
<polyline fill="none" stroke="black" points="258.495,-678.6 391.505,-678.6 "/>
<text text-anchor="start" x="266.495" y="-660.6" font-family="Times,serif" font-size="14.00">id :integer</text>
<text text-anchor="start" x="266.495" y="-643.8" font-family="Times,serif" font-size="14.00">text :text</text>
<text text-anchor="start" x="266.495" y="-627" font-family="Times,serif" font-size="14.00">user_id :integer</text>
<text text-anchor="start" x="266.495" y="-610.2" font-family="Times,serif" font-size="14.00">created_at :datetime</text>
<text text-anchor="start" x="266.495" y="-593.4" font-family="Times,serif" font-size="14.00">updated_at :datetime</text>
</g>
<!-- User&#45;&gt;Word -->
<g id="edge14" class="edge"><title>User&#45;&gt;Word</title>
<path fill="none" stroke="#ac8114" d="M325,-734.14C325,-727.472 325,-720.691 325,-714.001"/>
<ellipse fill="none" stroke="#ac8114" cx="325" cy="-738.218" rx="4" ry="4"/>
<polygon fill="#ac8114" stroke="#ac8114" points="325,-713.594 329.5,-703.594 325,-708.594 325,-703.594 325,-703.594 325,-703.594 325,-708.594 320.5,-703.594 325,-713.594 325,-713.594"/>
</g>
<!-- Word&#45;&gt;Definition -->
<g id="edge24" class="edge"><title>Word&#45;&gt;Definition</title>
<path fill="none" stroke="#426970" d="M250.948,-588.726C249.297,-587.789 247.646,-586.879 246,-586 202.217,-562.632 182.881,-574.627 141,-548 140.913,-547.944 140.825,-547.889 140.738,-547.833"/>
<ellipse fill="none" stroke="#426970" cx="254.735" cy="-590.96" rx="4.00002" ry="4.00002"/>
<polygon fill="#426970" stroke="#426970" points="140.942,-547.973 135.227,-538.614 136.815,-545.151 132.687,-542.329 132.687,-542.329 132.687,-542.329 136.815,-545.151 130.147,-546.043 140.942,-547.973 140.942,-547.973"/>
</g>
<!-- Word&#45;&gt;Gloss -->
<g id="edge26" class="edge"><title>Word&#45;&gt;Gloss</title>
<path fill="none" stroke="#2c4afc" d="M326.069,-578.244C327.019,-519.822 328.418,-433.781 329.484,-368.258"/>
<ellipse fill="none" stroke="#2c4afc" cx="326.003" cy="-582.344" rx="4" ry="4"/>
<polygon fill="#2c4afc" stroke="#2c4afc" points="329.489,-367.924 334.151,-357.999 329.57,-362.925 329.652,-357.926 329.652,-357.926 329.652,-357.926 329.57,-362.925 325.152,-357.853 329.489,-367.924 329.489,-367.924"/>
</g>
<!-- Word&#45;&gt;Place -->
<g id="edge28" class="edge"><title>Word&#45;&gt;Place</title>
<path fill="none" stroke="#8e7ea9" d="M370.153,-579.656C381.407,-563.62 393.404,-546.524 404.422,-530.824"/>
<ellipse fill="none" stroke="#8e7ea9" cx="367.59" cy="-583.31" rx="4.00002" ry="4.00002"/>
<polygon fill="#8e7ea9" stroke="#8e7ea9" points="404.687,-530.446 414.115,-524.845 407.559,-526.353 410.431,-522.26 410.431,-522.26 410.431,-522.26 407.559,-526.353 406.748,-519.675 404.687,-530.446 404.687,-530.446"/>
</g>
<!-- Word&#45;&gt;Word -->
<g id="edge22" class="edge"><title>Word&#45;&gt;Word</title>
<path fill="none" stroke="#42e7b4" d="M401.752,-659.28C444.253,-661.008 486.759,-656.248 486.759,-645 486.759,-633.752 444.253,-628.992 401.752,-630.72"/>
<polygon fill="#42e7b4" stroke="#42e7b4" points="401.538,-659.269 391.79,-654.246 396.545,-659.004 391.552,-658.739 391.552,-658.739 391.552,-658.739 396.545,-659.004 391.314,-663.233 401.538,-659.269 401.538,-659.269"/>
<polygon fill="#42e7b4" stroke="#42e7b4" points="401.538,-630.731 391.314,-626.767 396.545,-630.996 391.552,-631.261 391.552,-631.261 391.552,-631.261 396.545,-630.996 391.79,-635.754 401.538,-630.731 401.538,-630.731"/>
<text text-anchor="middle" x="530.7" y="-639.4" font-family="Times,serif" font-size="14.00">used_by_words</text>
</g>
<!-- Word&#45;&gt;Word -->
<g id="edge20" class="edge"><title>Word&#45;&gt;Word</title>
<path fill="none" stroke="#3a6f19" d="M401.629,-650.055C406.236,-648.851 409,-647.166 409,-645 409,-642.834 406.236,-641.149 401.629,-639.945"/>
<polygon fill="#3a6f19" stroke="#3a6f19" points="401.414,-650.09 390.82,-647.26 396.479,-650.896 391.545,-651.701 391.545,-651.701 391.545,-651.701 396.479,-650.896 392.27,-656.143 401.414,-650.09 401.414,-650.09"/>
<polygon fill="#3a6f19" stroke="#3a6f19" points="401.414,-639.91 392.27,-633.857 396.479,-639.104 391.545,-638.299 391.545,-638.299 391.545,-638.299 396.479,-639.104 390.82,-642.74 401.414,-639.91 401.414,-639.91"/>
<text text-anchor="middle" x="447.879" y="-639.4" font-family="Times,serif" font-size="14.00">source_words</text>
</g>
</g>
</svg>
