<?xml version="1.0" encoding="UTF-8" standalone="no"?>
<!DOCTYPE svg PUBLIC "-//W3C//DTD SVG 1.1//EN"
 "http://www.w3.org/Graphics/SVG/1.1/DTD/svg11.dtd">
<!-- Generated by graphviz version 2.28.0 (20121225.0610)
 -->
<!-- Title: models_diagram Pages: 1 -->
<svg width="731pt" height="902pt"
 viewBox="0.00 0.00 731.00 902.00" xmlns="http://www.w3.org/2000/svg" xmlns:xlink="http://www.w3.org/1999/xlink">
<g id="graph1" class="graph" transform="scale(1 1) rotate(0) translate(4 898)">
<title>models_diagram</title>
<polygon fill="white" stroke="white" points="-4,5 -4,-898 728,-898 728,5 -4,5"/>
<!-- _diagram_info -->
<g id="node1" class="node"><title>_diagram_info</title>
<text text-anchor="start" x="77.5503" y="-861" font-family="Times,serif" font-size="13.00">Models diagram</text>
<text text-anchor="start" x="77.5503" y="-845.4" font-family="Times,serif" font-size="13.00">Date: Feb 24 2013 &#45; 16:07</text>
<text text-anchor="start" x="77.5503" y="-829.8" font-family="Times,serif" font-size="13.00">Migration version: 20130112192239</text>
<text text-anchor="start" x="77.5503" y="-814.2" font-family="Times,serif" font-size="13.00">Generated by RailRoady 1.1.0</text>
<text text-anchor="start" x="77.5503" y="-798.6" font-family="Times,serif" font-size="13.00">http://railroady.prestonlee.com</text>
</g>
<!-- Definition -->
<g id="node2" class="node"><title>Definition</title>
<polyline fill="none" stroke="black" points="82.4946,-396.8 191.505,-396.8 "/>
<path fill="none" stroke="black" d="M191.505,-396.8C197.505,-396.8 203.505,-402.8 203.505,-408.8"/>
<polyline fill="none" stroke="black" points="203.505,-408.8 203.505,-535.2 "/>
<path fill="none" stroke="black" d="M203.505,-535.2C203.505,-541.2 197.505,-547.2 191.505,-547.2"/>
<polyline fill="none" stroke="black" points="191.505,-547.2 82.4946,-547.2 "/>
<path fill="none" stroke="black" d="M82.4946,-547.2C76.4946,-547.2 70.4946,-541.2 70.4946,-535.2"/>
<polyline fill="none" stroke="black" points="70.4946,-535.2 70.4946,-408.8 "/>
<path fill="none" stroke="black" d="M70.4946,-408.8C70.4946,-402.8 76.4946,-396.8 82.4946,-396.8"/>
<text text-anchor="middle" x="137" y="-529.2" font-family="Times,serif" font-size="14.00">Definition</text>
<polyline fill="none" stroke="black" points="70.4946,-522.4 203.505,-522.4 "/>
<text text-anchor="start" x="78.4946" y="-504.4" font-family="Times,serif" font-size="14.00">id :integer</text>
<text text-anchor="start" x="78.4946" y="-487.6" font-family="Times,serif" font-size="14.00">text :text</text>
<text text-anchor="start" x="78.4946" y="-470.8" font-family="Times,serif" font-size="14.00">user_id :integer</text>
<text text-anchor="start" x="78.4946" y="-454" font-family="Times,serif" font-size="14.00">word_id :integer</text>
<text text-anchor="start" x="78.4946" y="-437.2" font-family="Times,serif" font-size="14.00">language_id :integer</text>
<text text-anchor="start" x="78.4946" y="-420.4" font-family="Times,serif" font-size="14.00">created_at :datetime</text>
<text text-anchor="start" x="78.4946" y="-403.6" font-family="Times,serif" font-size="14.00">updated_at :datetime</text>
</g>
<!-- Vote -->
<g id="node9" class="node"><title>Vote</title>
<polyline fill="none" stroke="black" points="430.098,-0.8 539.902,-0.8 "/>
<path fill="none" stroke="black" d="M539.902,-0.8C545.902,-0.8 551.902,-6.8 551.902,-12.8"/>
<polyline fill="none" stroke="black" points="551.902,-12.8 551.902,-139.2 "/>
<path fill="none" stroke="black" d="M551.902,-139.2C551.902,-145.2 545.902,-151.2 539.902,-151.2"/>
<polyline fill="none" stroke="black" points="539.902,-151.2 430.098,-151.2 "/>
<path fill="none" stroke="black" d="M430.098,-151.2C424.098,-151.2 418.098,-145.2 418.098,-139.2"/>
<polyline fill="none" stroke="black" points="418.098,-139.2 418.098,-12.8 "/>
<path fill="none" stroke="black" d="M418.098,-12.8C418.098,-6.8 424.098,-0.8 430.098,-0.8"/>
<text text-anchor="middle" x="485" y="-133.2" font-family="Times,serif" font-size="14.00">Vote</text>
<polyline fill="none" stroke="black" points="418.098,-126.4 551.902,-126.4 "/>
<text text-anchor="start" x="426.098" y="-108.4" font-family="Times,serif" font-size="14.00">id :integer</text>
<text text-anchor="start" x="426.098" y="-91.6" font-family="Times,serif" font-size="14.00">vote :integer</text>
<text text-anchor="start" x="426.098" y="-74.8" font-family="Times,serif" font-size="14.00">user_id :integer</text>
<text text-anchor="start" x="426.098" y="-58" font-family="Times,serif" font-size="14.00">created_at :datetime</text>
<text text-anchor="start" x="426.098" y="-41.2" font-family="Times,serif" font-size="14.00">updated_at :datetime</text>
<text text-anchor="start" x="426.098" y="-24.4" font-family="Times,serif" font-size="14.00">voteable_id :integer</text>
<text text-anchor="start" x="426.098" y="-7.6" font-family="Times,serif" font-size="14.00">voteable_type :string</text>
</g>
<!-- Definition&#45;&gt;Vote -->
<g id="edge2" class="edge"><title>Definition&#45;&gt;Vote</title>
<path fill="none" stroke="#69d9dd" d="M208.397,-390.165C268.03,-322.65 352.676,-226.815 412.59,-158.981"/>
<ellipse fill="none" stroke="#69d9dd" cx="205.513" cy="-393.43" rx="4.00002" ry="4.00002"/>
<polygon fill="#69d9dd" stroke="#69d9dd" points="412.784,-158.762 422.777,-154.246 416.094,-155.014 419.404,-151.267 419.404,-151.267 419.404,-151.267 416.094,-155.014 416.031,-148.288 412.784,-158.762 412.784,-158.762"/>
</g>
<!-- Gloss -->
<g id="node3" class="node"><title>Gloss</title>
<polyline fill="none" stroke="black" points="427.757,-190.4 542.243,-190.4 "/>
<path fill="none" stroke="black" d="M542.243,-190.4C548.243,-190.4 554.243,-196.4 554.243,-202.4"/>
<polyline fill="none" stroke="black" points="554.243,-202.4 554.243,-345.6 "/>
<path fill="none" stroke="black" d="M554.243,-345.6C554.243,-351.6 548.243,-357.6 542.243,-357.6"/>
<polyline fill="none" stroke="black" points="542.243,-357.6 427.757,-357.6 "/>
<path fill="none" stroke="black" d="M427.757,-357.6C421.757,-357.6 415.757,-351.6 415.757,-345.6"/>
<polyline fill="none" stroke="black" points="415.757,-345.6 415.757,-202.4 "/>
<path fill="none" stroke="black" d="M415.757,-202.4C415.757,-196.4 421.757,-190.4 427.757,-190.4"/>
<text text-anchor="middle" x="485" y="-339.6" font-family="Times,serif" font-size="14.00">Gloss</text>
<polyline fill="none" stroke="black" points="415.757,-332.8 554.243,-332.8 "/>
<text text-anchor="start" x="423.757" y="-314.8" font-family="Times,serif" font-size="14.00">id :integer</text>
<text text-anchor="start" x="423.757" y="-298" font-family="Times,serif" font-size="14.00">text :text</text>
<text text-anchor="start" x="423.757" y="-281.2" font-family="Times,serif" font-size="14.00">glossable_id :integer</text>
<text text-anchor="start" x="423.757" y="-264.4" font-family="Times,serif" font-size="14.00">glossable_type :string</text>
<text text-anchor="start" x="423.757" y="-247.6" font-family="Times,serif" font-size="14.00">language_id :integer</text>
<text text-anchor="start" x="423.757" y="-230.8" font-family="Times,serif" font-size="14.00">tag_id :integer</text>
<text text-anchor="start" x="423.757" y="-214" font-family="Times,serif" font-size="14.00">created_at :datetime</text>
<text text-anchor="start" x="423.757" y="-197.2" font-family="Times,serif" font-size="14.00">updated_at :datetime</text>
</g>
<!-- Gloss&#45;&gt;Vote -->
<g id="edge4" class="edge"><title>Gloss&#45;&gt;Vote</title>
<path fill="none" stroke="#4e6e65" d="M485,-181.991C485,-175.28 485,-168.525 485,-161.852"/>
<ellipse fill="none" stroke="#4e6e65" cx="485" cy="-186.162" rx="4" ry="4"/>
<polygon fill="#4e6e65" stroke="#4e6e65" points="485,-161.453 489.5,-151.453 485,-156.453 485,-151.453 485,-151.453 485,-151.453 485,-156.453 480.5,-151.454 485,-161.453 485,-161.453"/>
</g>
<!-- Language -->
<g id="node4" class="node"><title>Language</title>
<polyline fill="none" stroke="black" points="11.4946,-612 120.505,-612 "/>
<path fill="none" stroke="black" d="M120.505,-612C126.505,-612 132.505,-618 132.505,-624"/>
<polyline fill="none" stroke="black" points="132.505,-624 132.505,-700 "/>
<path fill="none" stroke="black" d="M132.505,-700C132.505,-706 126.505,-712 120.505,-712"/>
<polyline fill="none" stroke="black" points="120.505,-712 11.4946,-712 "/>
<path fill="none" stroke="black" d="M11.4946,-712C5.49463,-712 -0.505371,-706 -0.505371,-700"/>
<polyline fill="none" stroke="black" points="-0.505371,-700 -0.505371,-624 "/>
<path fill="none" stroke="black" d="M-0.505371,-624C-0.505371,-618 5.49463,-612 11.4946,-612"/>
<text text-anchor="middle" x="66" y="-694" font-family="Times,serif" font-size="14.00">Language</text>
<polyline fill="none" stroke="black" points="-0.505371,-687.2 132.505,-687.2 "/>
<text text-anchor="start" x="7.49463" y="-669.2" font-family="Times,serif" font-size="14.00">id :integer</text>
<text text-anchor="start" x="7.49463" y="-652.4" font-family="Times,serif" font-size="14.00">code :text</text>
<text text-anchor="start" x="7.49463" y="-635.6" font-family="Times,serif" font-size="14.00">created_at :datetime</text>
<text text-anchor="start" x="7.49463" y="-618.8" font-family="Times,serif" font-size="14.00">updated_at :datetime</text>
</g>
<!-- Language&#45;&gt;Definition -->
<g id="edge8" class="edge"><title>Language&#45;&gt;Definition</title>
<path fill="none" stroke="#670692" d="M87.4837,-604.114C93.0521,-589.369 99.1686,-573.173 105.146,-557.346"/>
<ellipse fill="none" stroke="#670692" cx="86.0677" cy="-607.863" rx="4.00001" ry="4.00001"/>
<polygon fill="#670692" stroke="#670692" points="105.31,-556.911 113.053,-549.146 107.077,-552.233 108.843,-547.556 108.843,-547.556 108.843,-547.556 107.077,-552.233 104.634,-545.966 105.31,-556.911 105.31,-556.911"/>
</g>
<!-- Language&#45;&gt;Gloss -->
<g id="edge6" class="edge"><title>Language&#45;&gt;Gloss</title>
<path fill="none" stroke="#1e3599" d="M46.2052,-603.739C29.9687,-545.426 16.1982,-455.376 61,-396 102.414,-341.114 294.491,-303.675 405.39,-286.224"/>
<ellipse fill="none" stroke="#1e3599" cx="47.4023" cy="-607.905" rx="4.00001" ry="4.00001"/>
<polygon fill="#1e3599" stroke="#1e3599" points="405.651,-286.184 416.223,-289.095 410.591,-285.416 415.532,-284.648 415.532,-284.648 415.532,-284.648 410.591,-285.416 414.841,-280.202 405.651,-286.184 405.651,-286.184"/>
</g>
<!-- Place -->
<g id="node5" class="node"><title>Place</title>
<polyline fill="none" stroke="black" points="535.495,-422 644.505,-422 "/>
<path fill="none" stroke="black" d="M644.505,-422C650.505,-422 656.505,-428 656.505,-434"/>
<polyline fill="none" stroke="black" points="656.505,-434 656.505,-510 "/>
<path fill="none" stroke="black" d="M656.505,-510C656.505,-516 650.505,-522 644.505,-522"/>
<polyline fill="none" stroke="black" points="644.505,-522 535.495,-522 "/>
<path fill="none" stroke="black" d="M535.495,-522C529.495,-522 523.495,-516 523.495,-510"/>
<polyline fill="none" stroke="black" points="523.495,-510 523.495,-434 "/>
<path fill="none" stroke="black" d="M523.495,-434C523.495,-428 529.495,-422 535.495,-422"/>
<text text-anchor="middle" x="590" y="-504" font-family="Times,serif" font-size="14.00">Place</text>
<polyline fill="none" stroke="black" points="523.495,-497.2 656.505,-497.2 "/>
<text text-anchor="start" x="531.495" y="-479.2" font-family="Times,serif" font-size="14.00">id :integer</text>
<text text-anchor="start" x="531.495" y="-462.4" font-family="Times,serif" font-size="14.00">word_id :integer</text>
<text text-anchor="start" x="531.495" y="-445.6" font-family="Times,serif" font-size="14.00">created_at :datetime</text>
<text text-anchor="start" x="531.495" y="-428.8" font-family="Times,serif" font-size="14.00">updated_at :datetime</text>
</g>
<!-- Place&#45;&gt;Gloss -->
<g id="edge10" class="edge"><title>Place&#45;&gt;Gloss</title>
<path fill="none" stroke="#b7c7f7" d="M559.663,-414.371C551.683,-399.475 542.866,-383.016 534.171,-366.787"/>
<ellipse fill="none" stroke="#b7c7f7" cx="561.751" cy="-418.268" rx="4.00002" ry="4.00002"/>
<polygon fill="#b7c7f7" stroke="#b7c7f7" points="534.082,-366.62 533.326,-355.68 531.721,-362.212 529.36,-357.805 529.36,-357.805 529.36,-357.805 531.721,-362.212 525.393,-359.93 534.082,-366.62 534.082,-366.62"/>
</g>
<!-- Rafsi -->
<g id="node6" class="node"><title>Rafsi</title>
<polyline fill="none" stroke="black" points="233.495,-413.6 342.505,-413.6 "/>
<path fill="none" stroke="black" d="M342.505,-413.6C348.505,-413.6 354.505,-419.6 354.505,-425.6"/>
<polyline fill="none" stroke="black" points="354.505,-425.6 354.505,-518.4 "/>
<path fill="none" stroke="black" d="M354.505,-518.4C354.505,-524.4 348.505,-530.4 342.505,-530.4"/>
<polyline fill="none" stroke="black" points="342.505,-530.4 233.495,-530.4 "/>
<path fill="none" stroke="black" d="M233.495,-530.4C227.495,-530.4 221.495,-524.4 221.495,-518.4"/>
<polyline fill="none" stroke="black" points="221.495,-518.4 221.495,-425.6 "/>
<path fill="none" stroke="black" d="M221.495,-425.6C221.495,-419.6 227.495,-413.6 233.495,-413.6"/>
<text text-anchor="middle" x="288" y="-512.4" font-family="Times,serif" font-size="14.00">Rafsi</text>
<polyline fill="none" stroke="black" points="221.495,-505.6 354.505,-505.6 "/>
<text text-anchor="start" x="229.495" y="-487.6" font-family="Times,serif" font-size="14.00">id :integer</text>
<text text-anchor="start" x="229.495" y="-470.8" font-family="Times,serif" font-size="14.00">text :text</text>
<text text-anchor="start" x="229.495" y="-454" font-family="Times,serif" font-size="14.00">created_at :datetime</text>
<text text-anchor="start" x="229.495" y="-437.2" font-family="Times,serif" font-size="14.00">updated_at :datetime</text>
<text text-anchor="start" x="229.495" y="-420.4" font-family="Times,serif" font-size="14.00">word_id :integer</text>
</g>
<!-- Tag -->
<g id="node7" class="node"><title>Tag</title>
<polyline fill="none" stroke="black" points="384.495,-422 493.505,-422 "/>
<path fill="none" stroke="black" d="M493.505,-422C499.505,-422 505.505,-428 505.505,-434"/>
<polyline fill="none" stroke="black" points="505.505,-434 505.505,-510 "/>
<path fill="none" stroke="black" d="M505.505,-510C505.505,-516 499.505,-522 493.505,-522"/>
<polyline fill="none" stroke="black" points="493.505,-522 384.495,-522 "/>
<path fill="none" stroke="black" d="M384.495,-522C378.495,-522 372.495,-516 372.495,-510"/>
<polyline fill="none" stroke="black" points="372.495,-510 372.495,-434 "/>
<path fill="none" stroke="black" d="M372.495,-434C372.495,-428 378.495,-422 384.495,-422"/>
<text text-anchor="middle" x="439" y="-504" font-family="Times,serif" font-size="14.00">Tag</text>
<polyline fill="none" stroke="black" points="372.495,-497.2 505.505,-497.2 "/>
<text text-anchor="start" x="380.495" y="-479.2" font-family="Times,serif" font-size="14.00">id :integer</text>
<text text-anchor="start" x="380.495" y="-462.4" font-family="Times,serif" font-size="14.00">text :text</text>
<text text-anchor="start" x="380.495" y="-445.6" font-family="Times,serif" font-size="14.00">created_at :datetime</text>
<text text-anchor="start" x="380.495" y="-428.8" font-family="Times,serif" font-size="14.00">updated_at :datetime</text>
</g>
<!-- Tag&#45;&gt;Gloss -->
<g id="edge12" class="edge"><title>Tag&#45;&gt;Gloss</title>
<path fill="none" stroke="#70cd49" d="M452.402,-413.897C455.81,-399.376 459.561,-383.394 463.267,-367.6"/>
<ellipse fill="none" stroke="#70cd49" cx="451.462" cy="-417.9" rx="4.00001" ry="4.00001"/>
<polygon fill="#70cd49" stroke="#70cd49" points="463.281,-367.54 469.947,-358.833 464.424,-362.673 465.566,-357.805 465.566,-357.805 465.566,-357.805 464.424,-362.673 461.185,-356.777 463.281,-367.54 463.281,-367.54"/>
</g>
<!-- User -->
<g id="node8" class="node"><title>User</title>
<polyline fill="none" stroke="black" points="306.495,-776.6 415.505,-776.6 "/>
<path fill="none" stroke="black" d="M415.505,-776.6C421.505,-776.6 427.505,-782.6 427.505,-788.6"/>
<polyline fill="none" stroke="black" points="427.505,-788.6 427.505,-881.4 "/>
<path fill="none" stroke="black" d="M427.505,-881.4C427.505,-887.4 421.505,-893.4 415.505,-893.4"/>
<polyline fill="none" stroke="black" points="415.505,-893.4 306.495,-893.4 "/>
<path fill="none" stroke="black" d="M306.495,-893.4C300.495,-893.4 294.495,-887.4 294.495,-881.4"/>
<polyline fill="none" stroke="black" points="294.495,-881.4 294.495,-788.6 "/>
<path fill="none" stroke="black" d="M294.495,-788.6C294.495,-782.6 300.495,-776.6 306.495,-776.6"/>
<text text-anchor="middle" x="361" y="-875.4" font-family="Times,serif" font-size="14.00">User</text>
<polyline fill="none" stroke="black" points="294.495,-868.6 427.505,-868.6 "/>
<text text-anchor="start" x="302.495" y="-850.6" font-family="Times,serif" font-size="14.00">id :integer</text>
<text text-anchor="start" x="302.495" y="-833.8" font-family="Times,serif" font-size="14.00">name :text</text>
<text text-anchor="start" x="302.495" y="-817" font-family="Times,serif" font-size="14.00">email :text</text>
<text text-anchor="start" x="302.495" y="-800.2" font-family="Times,serif" font-size="14.00">created_at :datetime</text>
<text text-anchor="start" x="302.495" y="-783.4" font-family="Times,serif" font-size="14.00">updated_at :datetime</text>
</g>
<!-- User&#45;&gt;Definition -->
<g id="edge16" class="edge"><title>User&#45;&gt;Definition</title>
<path fill="none" stroke="#61f080" d="M308.052,-770.013C300.043,-759.522 292.095,-748.609 285,-738 245.814,-679.41 207.172,-609.698 179.204,-556.484"/>
<ellipse fill="none" stroke="#61f080" cx="310.598" cy="-773.316" rx="4.00002" ry="4.00002"/>
<polygon fill="#61f080" stroke="#61f080" points="179.096,-556.279 178.446,-545.332 176.778,-551.849 174.459,-547.419 174.459,-547.419 174.459,-547.419 176.778,-551.849 170.472,-549.506 179.096,-556.279 179.096,-556.279"/>
</g>
<!-- User&#45;&gt;Vote -->
<g id="edge18" class="edge"><title>User&#45;&gt;Vote</title>
<path fill="none" stroke="#450ffb" d="M435.947,-830.968C541.971,-822.209 723,-788.83 723,-663 723,-663 723,-663 723,-273 723,-187.88 631.166,-132.881 561.588,-103.426"/>
<ellipse fill="none" stroke="#450ffb" cx="431.806" cy="-831.291" rx="4" ry="4"/>
<polygon fill="#450ffb" stroke="#450ffb" points="561.173,-103.255 553.647,-95.2793 556.551,-101.347 551.93,-99.4388 551.93,-99.4388 551.93,-99.4388 556.551,-101.347 550.212,-103.598 561.173,-103.255 561.173,-103.255"/>
</g>
<!-- Word -->
<g id="node10" class="node"><title>Word</title>
<polyline fill="none" stroke="black" points="306.495,-586.8 415.505,-586.8 "/>
<path fill="none" stroke="black" d="M415.505,-586.8C421.505,-586.8 427.505,-592.8 427.505,-598.8"/>
<polyline fill="none" stroke="black" points="427.505,-598.8 427.505,-725.2 "/>
<path fill="none" stroke="black" d="M427.505,-725.2C427.505,-731.2 421.505,-737.2 415.505,-737.2"/>
<polyline fill="none" stroke="black" points="415.505,-737.2 306.495,-737.2 "/>
<path fill="none" stroke="black" d="M306.495,-737.2C300.495,-737.2 294.495,-731.2 294.495,-725.2"/>
<polyline fill="none" stroke="black" points="294.495,-725.2 294.495,-598.8 "/>
<path fill="none" stroke="black" d="M294.495,-598.8C294.495,-592.8 300.495,-586.8 306.495,-586.8"/>
<text text-anchor="middle" x="361" y="-719.2" font-family="Times,serif" font-size="14.00">Word</text>
<polyline fill="none" stroke="black" points="294.495,-712.4 427.505,-712.4 "/>
<text text-anchor="start" x="302.495" y="-694.4" font-family="Times,serif" font-size="14.00">id :integer</text>
<text text-anchor="start" x="302.495" y="-677.6" font-family="Times,serif" font-size="14.00">text :text</text>
<text text-anchor="start" x="302.495" y="-660.8" font-family="Times,serif" font-size="14.00">user_id :integer</text>
<text text-anchor="start" x="302.495" y="-644" font-family="Times,serif" font-size="14.00">created_at :datetime</text>
<text text-anchor="start" x="302.495" y="-627.2" font-family="Times,serif" font-size="14.00">updated_at :datetime</text>
<text text-anchor="start" x="302.495" y="-610.4" font-family="Times,serif" font-size="14.00">notes :text</text>
<text text-anchor="start" x="302.495" y="-593.6" font-family="Times,serif" font-size="14.00">valsi_type :text</text>
</g>
<!-- User&#45;&gt;Word -->
<g id="edge14" class="edge"><title>User&#45;&gt;Word</title>
<path fill="none" stroke="#962168" d="M361,-768.491C361,-761.629 361,-754.585 361,-747.55"/>
<ellipse fill="none" stroke="#962168" cx="361" cy="-772.584" rx="4" ry="4"/>
<polygon fill="#962168" stroke="#962168" points="361,-747.271 365.5,-737.271 361,-742.271 361,-737.271 361,-737.271 361,-737.271 361,-742.271 356.5,-737.271 361,-747.271 361,-747.271"/>
</g>
<!-- Word&#45;&gt;Definition -->
<g id="edge24" class="edge"><title>Word&#45;&gt;Definition</title>
<path fill="none" stroke="#d21c00" d="M287.664,-608.501C263.046,-590.066 235.81,-568.762 212,-548 211.74,-547.773 211.479,-547.545 211.219,-547.317"/>
<ellipse fill="none" stroke="#d21c00" cx="290.99" cy="-610.981" rx="4.00002" ry="4.00002"/>
<polygon fill="#d21c00" stroke="#d21c00" points="211.077,-547.191 206.62,-537.172 207.349,-543.859 203.621,-540.527 203.621,-540.527 203.621,-540.527 207.349,-543.859 200.623,-543.882 211.077,-547.191 211.077,-547.191"/>
</g>
<!-- Word&#45;&gt;Gloss -->
<g id="edge26" class="edge"><title>Word&#45;&gt;Gloss</title>
<path fill="none" stroke="#eafa9a" d="M435.711,-656.427C507.896,-647.569 613.63,-621.899 665,-548 703.559,-492.53 696.762,-455.623 665,-396 643.365,-355.388 601.369,-325.977 563.381,-306.327"/>
<ellipse fill="none" stroke="#eafa9a" cx="431.493" cy="-656.916" rx="4.00001" ry="4.00001"/>
<polygon fill="#eafa9a" stroke="#eafa9a" points="563.272,-306.273 556.352,-297.766 558.803,-304.031 554.334,-301.789 554.334,-301.789 554.334,-301.789 558.803,-304.031 552.316,-305.811 563.272,-306.273 563.272,-306.273"/>
</g>
<!-- Word&#45;&gt;Place -->
<g id="edge28" class="edge"><title>Word&#45;&gt;Place</title>
<path fill="none" stroke="#328b16" d="M434.225,-610.178C460.054,-591.408 488.897,-569.466 514,-548 520.932,-542.072 528.007,-535.653 534.914,-529.149"/>
<ellipse fill="none" stroke="#328b16" cx="430.968" cy="-612.534" rx="4.00002" ry="4.00002"/>
<polygon fill="#328b16" stroke="#328b16" points="535.091,-528.98 545.433,-525.335 538.709,-525.529 542.328,-522.078 542.328,-522.078 542.328,-522.078 538.709,-525.529 539.222,-518.822 535.091,-528.98 535.091,-528.98"/>
</g>
<!-- Word&#45;&gt;Rafsi -->
<g id="edge30" class="edge"><title>Word&#45;&gt;Rafsi</title>
<path fill="none" stroke="#4d6b48" d="M329.239,-579.205C324.164,-566.135 318.965,-552.745 314.043,-540.069"/>
<ellipse fill="none" stroke="#4d6b48" cx="330.701" cy="-582.969" rx="4.00001" ry="4.00001"/>
<polygon fill="#4d6b48" stroke="#4d6b48" points="313.959,-539.854 314.534,-528.903 312.149,-535.193 310.339,-530.532 310.339,-530.532 310.339,-530.532 312.149,-535.193 306.145,-532.161 313.959,-539.854 313.959,-539.854"/>
</g>
<!-- Word&#45;&gt;Word -->
<g id="edge22" class="edge"><title>Word&#45;&gt;Word</title>
<path fill="none" stroke="#157412" d="M437.752,-679.209C480.253,-681.291 522.759,-675.555 522.759,-662 522.759,-648.445 480.253,-642.709 437.752,-644.791"/>
<polygon fill="#157412" stroke="#157412" points="437.531,-679.195 427.839,-674.067 432.542,-678.876 427.552,-678.558 427.552,-678.558 427.552,-678.558 432.542,-678.876 427.265,-683.048 437.531,-679.195 437.531,-679.195"/>
<polygon fill="#157412" stroke="#157412" points="437.531,-644.805 427.265,-640.952 432.542,-645.124 427.552,-645.442 427.552,-645.442 427.552,-645.442 432.542,-645.124 427.839,-649.933 437.531,-644.805 437.531,-644.805"/>
<text text-anchor="middle" x="566.7" y="-656.4" font-family="Times,serif" font-size="14.00">used_by_words</text>
</g>
<!-- Word&#45;&gt;Word -->
<g id="edge20" class="edge"><title>Word&#45;&gt;Word</title>
<path fill="none" stroke="#1cc40f" d="M437.629,-668.092C442.236,-666.641 445,-664.61 445,-662 445,-659.39 442.236,-657.359 437.629,-655.908"/>
<polygon fill="#1cc40f" stroke="#1cc40f" points="437.357,-668.145 426.676,-665.661 432.451,-669.111 427.545,-670.076 427.545,-670.076 427.545,-670.076 432.451,-669.111 428.414,-674.491 437.357,-668.145 437.357,-668.145"/>
<polygon fill="#1cc40f" stroke="#1cc40f" points="437.357,-655.855 428.414,-649.509 432.451,-654.889 427.545,-653.924 427.545,-653.924 427.545,-653.924 432.451,-654.889 426.676,-658.339 437.357,-655.855 437.357,-655.855"/>
<text text-anchor="middle" x="483.879" y="-656.4" font-family="Times,serif" font-size="14.00">source_words</text>
</g>
</g>
</svg>
